#N canvas 692 193 1920 970 12;
#X obj 242 645 *~ 0.25;
#X obj 216 710 dac~;
#X obj 246 369 select 0 1;
#X obj 218 271 f;
#X obj 264 266 + 1;
#X obj 240 505 osc~;
#X obj 233 426 500;
#X obj 311 432 800;
#X obj 210 175 tgl 19 0 empty empty empty 0 -10 0 12 #fcfcfc #000000 #000000 0 1;
#X obj 216 215 metro 2000;
#X obj 247 320 mod 3;
#X text 346 200;
#X obj 274 126 loadbang;
#X obj 286 180 500;
#X obj 385 147 r deathTrig;
#X connect 0 0 1 0;
#X connect 2 0 6 0;
#X connect 2 1 7 0;
#X connect 3 0 4 0;
#X connect 3 0 10 0;
#X connect 4 0 3 1;
#X connect 5 0 0 0;
#X connect 6 0 5 0;
#X connect 7 0 5 0;
#X connect 8 0 9 0;
#X connect 9 0 3 0;
#X connect 10 0 2 0;
#X connect 12 0 13 0;
#X connect 13 0 9 1;
#X connect 14 0 13 0;
