#N canvas 260 260 1858 1037 12;
#X text 208 277 creation arguments are OSC address;
#X text 205 238 set message to change OSC address;
#X text 164 48 1 Set IP Address : network address;
#X text 164 68 2 Set Ports (sending and listening);
#X text 164 87 3 Set OSC Addresses (routing osc data;
#X text 155 26 Key Settings;
#X floatatom 43 194 5 0 0 0 - - - 0;
#N canvas 165 -17 1858 1037 oscReceive 0;
#X obj 55 184 netreceive -u -b;
#X msg 78 143 listen 0;
#X text 152 143 stop listening;
#X text 64 58 packets from network;
#X text 173 177 UDP packets \, binary output, f 13;
#X obj 45 314 print;
#X obj 45 272 oscparse;
#X text 150 114 listen on port 8000;
#X obj 177 269 oscparse;
#X obj 177 293 list trim;
#X floatatom 109 381 5 0 0 0 - - - 0;
#X text 241 267 Parse the OSC message;
#X obj 177 319 route unity;
#X msg 66 115 listen 8000;
#X obj 66 84 loadbang;
#X floatatom 244 382 5 0 0 0 - - - 0;
#X floatatom 391 385 5 0 0 0 - - - 0;
#X obj 108 357 route triggerCoin;
#X obj 111 407 s coinTrig;
#X obj 243 359 route triggerDrown;
#X obj 244 409 s drownTrig;
#X obj 391 359 route tempoDrown;
#X obj 391 414 s drownTemp;
#X floatatom -22 385 5 0 0 0 - - - 0;
#X obj -23 361 route triggerDeath;
#X obj -20 411 s deathTrig;
#X connect 0 0 6 0;
#X connect 0 0 8 0;
#X connect 1 0 0 0;
#X connect 6 0 5 0;
#X connect 8 0 9 0;
#X connect 9 0 12 0;
#X connect 10 0 18 0;
#X connect 12 0 17 0;
#X connect 12 0 19 0;
#X connect 12 0 21 0;
#X connect 12 0 24 0;
#X connect 13 0 0 0;
#X connect 14 0 13 0;
#X connect 15 0 20 0;
#X connect 16 0 22 0;
#X connect 17 0 10 0;
#X connect 19 0 15 0;
#X connect 21 0 16 0;
#X connect 23 0 25 0;
#X connect 24 0 23 0;
#X restore 47 142 pd oscReceive;
#X obj 47 36 tgl 15 0 empty empty empty 17 7 0 10 #fcfcfc #000000 #000000 0 1;
#X msg 47 61 \; pd dsp \$1;
#X obj 44 278 oscformat PD message;
#X msg 76 239 set PD message;
#N canvas 455 272 450 300 oscSend 0;
#X msg 158 207 disconnect;
#X obj 61 253 netsend -u -b;
#X obj 59 55 list prepend send;
#X obj 59 80 list trim;
#X msg 150 175 connect 127.0.0.1 8001;
#X obj 59 29 r oscOut;
#X text 301 163 send to port 8001;
#X msg 147 148 connect localhost 8001;
#X obj 147 108 loadbang;
#X connect 0 0 1 0;
#X connect 2 0 3 0;
#X connect 3 0 1 0;
#X connect 4 0 1 0;
#X connect 5 0 2 0;
#X connect 7 0 1 0;
#X connect 8 0 7 0;
#X restore 47 118 pd oscSend;
#X obj 44 313 s oscOut;
#X obj 861 618 *~;
#X obj 852 663 dac~;
#X obj 568 214 mtof;
#X obj 568 271 *~ 10000;
#X obj 568 242 osc~;
#X obj 638 156 delay 100;
#X msg 568 156 86;
#X msg 638 185 98;
#X obj 638 109 bng 15 250 50 0 empty empty empty 17 7 0 10 #fcfcfc #000000 #000000;
#X msg 781 156 1 0 \, 0 250 0;
#X obj 781 308 vline~;
#X obj 568 325 *~;
#X obj 568 376 dac~;
#X obj 593 119 bng 15 250 50 0 empty empty empty 17 7 0 10 #fcfcfc #000000 #000000;
#X obj 686 116 bng 15 250 50 0 empty empty empty 17 7 0 10 #fcfcfc #000000 #000000;
#X obj 568 299 clip~ 0 1;
#X obj 638 49 r coinTrig;
#X floatatom 638 78 5 0 0 0 - - - 0;
#X obj 1138 607 *~;
#X obj 1129 652 dac~;
#X obj 1039 382 mtof;
#X obj 1038 341 + 0;
#X obj 1021 132 metro 4000;
#X obj 1021 99 tgl 15 0 empty empty empty 17 7 0 10 #fcfcfc #000000 #000000 0 1;
#X floatatom 1088 104 5 0 0 0 - - - 0;
#X obj 1002 166 f;
#X obj 1045 168 + 1;
#X obj 1023 233 select 0 1 2 3;
#X obj 1285 319 vline~;
#X floatatom 1185 318 5 0 0 0 - - - 0;
#X obj 1185 265 loadbang;
#X obj 1022 201 mod 4;
#X msg 996 286 0;
#X obj 1018 488 phasor~;
#X floatatom 1016 429 5 0 0 0 - - - 0;
#X obj 1093 487 phasor~;
#X obj 1092 456 * -1;
#X obj 1137 534 +~;
#X obj 1135 567 -~ 1;
#X msg 1094 425 0;
#X msg 1142 425 0.5;
#X obj 1115 395 bng 15 250 50 0 empty empty empty 17 7 0 10 #fcfcfc #000000 #000000;
#X obj 1114 370 loadbang;
#X msg 1035 286 -5;
#X msg 1076 286 -3;
#X msg 1118 286 -1;
#X msg 1285 267 0.5 25 \, 0 100 75;
#X msg 1185 292 48;
#X obj 987 15 r drownTrig;
#X floatatom 986 41 5 0 0 0 - - - 0;
#X obj 1128 70 r drownTemp;
#X obj 122 171 r drownTemp;
#X obj 1460 687 dac~;
#X obj 1490 346 select 0 1;
#X obj 1462 248 f;
#X obj 1508 243 + 1;
#X obj 1454 152 tgl 19 0 empty empty empty 0 -10 0 12 #fcfcfc #000000 #000000 0 1;
#X obj 1460 192 metro 2000;
#X obj 1425 76 r deathTrig;
#X floatatom 1445 120 5 0 0 0 - - - 0;
#X obj 1489 553 phasor~;
#X obj 1643 359 vline~;
#X msg 1643 307 0.5 25 \, 0 100 75;
#X obj 1486 622 *~;
#X msg 1487 404 200;
#X msg 1528 404 500;
#X obj 1527 104 loadbang;
#X obj 1532 149 500;
#X obj 1491 297 mod 2;
#X floatatom 1488 509 5 0 0 0 - - - 0;
#X connect 6 0 10 0;
#X connect 8 0 9 0;
#X connect 10 0 13 0;
#X connect 11 0 10 0;
#X connect 14 0 15 0;
#X connect 14 0 15 1;
#X connect 16 0 18 0;
#X connect 17 0 29 0;
#X connect 18 0 17 0;
#X connect 19 0 21 0;
#X connect 20 0 16 0;
#X connect 21 0 16 0;
#X connect 22 0 23 0;
#X connect 22 0 20 0;
#X connect 22 0 19 0;
#X connect 23 0 24 0;
#X connect 24 0 25 1;
#X connect 25 0 26 0;
#X connect 25 0 26 1;
#X connect 27 0 20 0;
#X connect 27 0 23 0;
#X connect 28 0 21 0;
#X connect 28 0 23 0;
#X connect 29 0 25 0;
#X connect 30 0 31 0;
#X connect 31 0 22 0;
#X connect 32 0 33 0;
#X connect 32 0 33 1;
#X connect 34 0 48 0;
#X connect 35 0 34 0;
#X connect 36 0 39 0;
#X connect 36 0 60 0;
#X connect 37 0 36 0;
#X connect 38 0 36 1;
#X connect 39 0 40 0;
#X connect 39 0 45 0;
#X connect 40 0 39 1;
#X connect 41 0 46 0;
#X connect 41 1 57 0;
#X connect 41 2 58 0;
#X connect 41 3 59 0;
#X connect 42 0 32 1;
#X connect 43 0 35 1;
#X connect 44 0 61 0;
#X connect 45 0 41 0;
#X connect 46 0 35 0;
#X connect 47 0 51 0;
#X connect 48 0 47 0;
#X connect 48 0 50 0;
#X connect 49 0 51 1;
#X connect 50 0 49 0;
#X connect 51 0 52 0;
#X connect 52 0 32 0;
#X connect 53 0 47 1;
#X connect 54 0 49 1;
#X connect 55 0 53 0;
#X connect 55 0 54 0;
#X connect 56 0 55 0;
#X connect 57 0 35 0;
#X connect 58 0 35 0;
#X connect 59 0 35 0;
#X connect 60 0 42 0;
#X connect 61 0 43 0;
#X connect 62 0 63 0;
#X connect 63 0 37 0;
#X connect 64 0 38 0;
#X connect 65 0 6 0;
#X connect 67 0 78 0;
#X connect 67 1 79 0;
#X connect 68 0 69 0;
#X connect 68 0 82 0;
#X connect 69 0 68 1;
#X connect 70 0 71 0;
#X connect 71 0 68 0;
#X connect 71 0 76 0;
#X connect 72 0 73 0;
#X connect 73 0 70 0;
#X connect 74 0 77 0;
#X connect 75 0 77 1;
#X connect 76 0 75 0;
#X connect 77 0 66 0;
#X connect 78 0 83 0;
#X connect 79 0 83 0;
#X connect 80 0 81 0;
#X connect 81 0 71 1;
#X connect 82 0 67 0;
#X connect 83 0 74 0;
